# Blender v2.78 (sub 0) OBJ File: 'button.blend'
# www.blender.org
mtllib button.mtl
o Cube.001
v -0.200000 0.625000 2.616369
v 0.200000 0.625000 2.616369
v -0.200000 0.625000 2.216369
v 0.200000 0.625000 2.216369
v -0.700000 0.000000 3.116369
v -0.200000 0.625000 2.616369
v -0.700000 0.000000 1.716369
v -0.200000 0.625000 2.216369
v -0.700000 0.000000 1.716369
v -0.200000 0.625000 2.216369
v 0.700000 0.000000 1.716369
v 0.200000 0.625000 2.216369
v 0.700000 0.000000 3.116369
v 0.200000 0.625000 2.616369
v 0.700000 0.000000 1.716369
v 0.200000 0.625000 2.216369
v -0.700000 0.000000 3.116369
v -0.200000 0.625000 2.616369
v 0.700000 0.000000 3.116369
v 0.200000 0.625000 2.616369
v -0.700000 0.000000 3.116369
v 0.700000 0.000000 3.116369
v -0.700000 0.000000 1.716369
v 0.700000 0.000000 1.716369
vn 0.0000 1.0000 0.0000
vn -0.7809 0.6247 0.0000
vn 0.0000 0.6247 -0.7809
vn 0.7809 0.6247 0.0000
vn 0.0000 0.6247 0.7809
vn 0.0000 -1.0000 0.0000
usemtl glowing
s off
f 1//1 2//1 4//1 3//1
f 5//2 6//2 8//2 7//2
f 9//3 10//3 12//3 11//3
f 13//4 15//4 16//4 14//4
f 17//5 19//5 20//5 18//5
f 21//6 23//6 24//6 22//6
