# Blender v2.78 (sub 0) OBJ File: 'button.blend'
# www.blender.org
mtllib button.mtl
o Cube.000_Cube.002
v -1.000000 0.000000 1.416369
v -1.000000 0.250000 1.416369
v 1.000000 0.000000 1.416369
v 1.000000 0.250000 1.416369
v 1.000000 0.000000 3.416369
v 1.000000 0.250000 3.416369
v 1.000000 0.000000 1.416369
v 1.000000 0.250000 1.416369
v -1.000000 0.000000 3.416369
v -1.000000 0.250000 3.416369
v -1.000000 0.000000 1.416369
v -1.000000 0.250000 1.416369
v -1.000000 0.000000 3.416369
v -1.000000 0.250000 3.416369
v 1.000000 0.000000 3.416369
v 1.000000 0.250000 3.416369
v -0.800000 0.250000 1.616369
v 0.800000 0.250000 1.616369
v -1.000000 0.250000 1.416369
v 1.000000 0.250000 1.416369
v 0.800000 0.250000 3.216369
v -0.800000 0.250000 3.216369
v 1.000000 0.250000 3.416369
v -1.000000 0.250000 3.416369
v 0.800000 0.250000 1.616369
v 0.800000 0.250000 3.216369
v 1.000000 0.250000 1.416369
v 1.000000 0.250000 3.416369
v -0.800000 0.250000 3.216369
v -0.800000 0.250000 1.616369
v -1.000000 0.250000 3.416369
v -1.000000 0.250000 1.416369
v -0.800000 0.000000 1.616369
v 0.800000 0.000000 1.616369
v -1.000000 0.000000 1.416369
v 1.000000 0.000000 1.416369
v 0.800000 0.000000 3.216369
v -0.800000 0.000000 3.216369
v 1.000000 0.000000 3.416369
v -1.000000 0.000000 3.416369
v 0.800000 0.000000 1.616369
v 0.800000 0.000000 3.216369
v 1.000000 0.000000 1.416369
v 1.000000 0.000000 3.416369
v -0.800000 0.000000 3.216369
v -0.800000 0.000000 1.616369
v -1.000000 0.000000 3.416369
v -1.000000 0.000000 1.416369
v -0.800000 0.000000 1.616369
v -0.800000 0.250000 1.616369
v 0.800000 0.000000 1.616369
v 0.800000 0.250000 1.616369
v 0.800000 0.000000 3.216369
v 0.800000 0.250000 3.216369
v 0.800000 0.000000 1.616369
v 0.800000 0.250000 1.616369
v -0.800000 0.000000 3.216369
v -0.800000 0.250000 3.216369
v -0.800000 0.000000 1.616369
v -0.800000 0.250000 1.616369
v -0.800000 0.000000 3.216369
v -0.800000 0.250000 3.216369
v 0.800000 0.000000 3.216369
v 0.800000 0.250000 3.216369
vn 0.0000 0.0000 -1.0000
vn 1.0000 0.0000 0.0000
vn -1.0000 0.0000 0.0000
vn 0.0000 0.0000 1.0000
vn 0.0000 1.0000 0.0000
vn 0.0000 -1.0000 0.0000
usemtl border
s off
f 1//1 2//1 4//1 3//1
f 5//2 7//2 8//2 6//2
f 9//3 10//3 12//3 11//3
f 13//4 15//4 16//4 14//4
f 17//5 18//5 20//5 19//5
f 21//5 22//5 24//5 23//5
f 25//5 26//5 28//5 27//5
f 29//5 30//5 32//5 31//5
f 33//6 35//6 36//6 34//6
f 37//6 39//6 40//6 38//6
f 41//6 43//6 44//6 42//6
f 45//6 47//6 48//6 46//6
f 49//4 51//4 52//4 50//4
f 53//3 54//3 56//3 55//3
f 57//2 59//2 60//2 58//2
f 61//1 62//1 64//1 63//1
o Cube.001
v -0.700000 0.625000 3.116369
v 0.700000 0.625000 3.116369
v -0.700000 0.625000 1.716369
v 0.700000 0.625000 1.716369
v -0.700000 0.000000 3.116369
v -0.700000 0.625000 3.116369
v -0.700000 0.000000 1.716369
v -0.700000 0.625000 1.716369
v -0.700000 0.000000 1.716369
v -0.700000 0.625000 1.716369
v 0.700000 0.000000 1.716369
v 0.700000 0.625000 1.716369
v 0.700000 0.000000 3.116369
v 0.700000 0.625000 3.116369
v 0.700000 0.000000 1.716369
v 0.700000 0.625000 1.716369
v -0.700000 0.000000 3.116369
v -0.700000 0.625000 3.116369
v 0.700000 0.000000 3.116369
v 0.700000 0.625000 3.116369
v -0.700000 0.000000 3.116369
v 0.700000 0.000000 3.116369
v -0.700000 0.000000 1.716369
v 0.700000 0.000000 1.716369
vn 0.0000 1.0000 0.0000
vn -1.0000 0.0000 0.0000
vn 0.0000 0.0000 -1.0000
vn 1.0000 0.0000 0.0000
vn 0.0000 0.0000 1.0000
vn 0.0000 -1.0000 0.0000
usemtl glowing
s off
f 65//7 66//7 68//7 67//7
f 69//8 70//8 72//8 71//8
f 73//9 74//9 76//9 75//9
f 77//10 79//10 80//10 78//10
f 81//11 83//11 84//11 82//11
f 85//12 87//12 88//12 86//12
