# Blender v2.78 (sub 0) OBJ File: 'trail.blend'
# www.blender.org
mtllib trail.mtl
o Cube
v -0.800000 -0.000000 0.141421
v 0.800000 0.141421 -0.000000
v -0.800000 0.141421 -0.000000
v 0.800000 -0.000000 0.141421
v -0.800000 -0.141421 -0.000000
v 0.800000 -0.000000 -0.141421
v -0.800000 -0.000000 -0.141421
v 0.800000 -0.141421 -0.000000
v -0.800000 -0.000000 -0.141421
v 0.800000 0.141421 -0.000000
v -0.800000 0.141421 -0.000000
v 0.800000 -0.000000 -0.141421
v -0.800000 -0.141421 -0.000000
v 0.800000 -0.000000 0.141421
v -0.800000 -0.000000 0.141421
v 0.800000 -0.141421 -0.000000
v -0.800000 0.141421 -0.000000
v -0.800000 -0.000000 -0.141421
v -0.900000 -0.000000 -0.000000
v -0.800000 -0.000000 0.141421
v -0.800000 0.141421 -0.000000
v -0.900000 -0.000000 -0.000000
v -0.800000 -0.141421 -0.000000
v -0.800000 -0.000000 0.141421
v -0.900000 -0.000000 -0.000000
v -0.800000 -0.000000 -0.141421
v -0.800000 -0.141421 -0.000000
v -0.900000 -0.000000 -0.000000
v 0.800000 0.141421 -0.000000
v 0.800000 0.000000 -0.141421
v 0.900000 0.000000 -0.000000
v 0.800000 0.000000 0.141421
v 0.800000 0.141421 -0.000000
v 0.900000 0.000000 -0.000000
v 0.800000 -0.141421 -0.000000
v 0.800000 0.000000 0.141421
v 0.900000 0.000000 -0.000000
v 0.800000 0.000000 -0.141421
v 0.800000 -0.141421 -0.000000
v 0.900000 0.000000 -0.000000
vn 0.0000 0.7071 0.7071
vn 0.0000 -0.7071 -0.7071
vn 0.0000 0.7071 -0.7071
vn 0.0000 -0.7071 0.7071
vn -0.7071 0.5000 -0.5000
vn -0.7071 0.5000 0.5000
vn -0.7071 -0.5000 0.5000
vn -0.7071 -0.5000 -0.5000
vn 0.7071 0.5000 -0.5000
vn 0.7071 0.5000 0.5000
vn 0.7071 -0.5000 0.5000
vn 0.7071 -0.5000 -0.5000
usemtl trail
s off
f 1//1 4//1 2//1 3//1
f 5//2 7//2 6//2 8//2
f 9//3 11//3 10//3 12//3
f 13//4 16//4 14//4 15//4
f 17//5 18//5 19//5
f 20//6 21//6 22//6
f 23//7 24//7 25//7
f 26//8 27//8 28//8
f 29//9 31//9 30//9
f 32//10 34//10 33//10
f 35//11 37//11 36//11
f 38//12 40//12 39//12
